<svg width="417" height="77" viewBox="0 0 417 77" fill="none" xmlns="http://www.w3.org/2000/svg">
<path d="M110.474 17.9873L90.8048 66.6673L90.1976 68.1678C89.259 70.4882 87.669 72.4873 85.6194 73.924C83.5698 75.3607 81.1482 76.1735 78.6469 76.2643C78.3917 76.2643 78.1321 76.2643 77.8768 76.2643C76.0471 76.2098 74.2496 75.7688 72.6024 74.9702C70.9552 74.1716 69.4956 73.0336 68.3195 71.6308L67.3778 70.5176L55.7479 56.6524L44.1621 70.4648L43.1764 71.6352C41.9994 73.0403 40.5378 74.1797 38.8881 74.9784C37.2384 75.7771 35.438 76.2169 33.6058 76.2687C33.3594 76.2687 33.113 76.2687 32.8622 76.2687C30.3553 76.1822 27.9273 75.3711 25.8718 73.9334C23.8164 72.4957 22.2217 70.493 21.2807 68.1678L20.6515 66.6101L1.00433 17.9873C0.341817 16.4024 0.000444521 14.7019 4.33838e-07 12.9841C-0.000443653 11.2664 0.34005 9.56561 1.00175 7.98042C1.66344 6.39524 2.63318 4.95714 3.85476 3.7495C5.07634 2.54185 6.52546 1.58867 8.11813 0.945191C9.7108 0.301717 11.4153 -0.0192504 13.133 0.000892576C14.8506 0.0210355 16.5472 0.381888 18.1243 1.06254C19.7014 1.74318 21.1278 2.73009 22.3207 3.96605C23.5137 5.20201 24.4494 6.66245 25.0737 8.26272L37.2229 38.3297L44.5933 29.5292L45.8782 28.0023C47.0619 26.5935 48.5318 25.4526 50.1902 24.6552C51.8486 23.8579 53.6576 23.4224 55.4971 23.3776H55.9988C57.8369 23.4248 59.6439 23.8623 61.3 24.6611C62.9561 25.46 64.4234 26.6019 65.6045 28.0111L66.8894 29.538L74.2686 38.3385L86.4177 8.26712C87.0421 6.66685 87.9778 5.20641 89.1708 3.97045C90.3637 2.73449 91.79 1.74758 93.3672 1.06694C94.9443 0.386288 96.6409 0.0254358 98.3585 0.00529283C100.076 -0.0148501 101.781 0.306117 103.373 0.949591C104.966 1.59307 106.415 2.54625 107.637 3.7539C108.858 4.96154 109.828 6.39964 110.49 7.98482C111.151 9.57001 111.492 11.2708 111.491 12.9885C111.491 14.7063 111.15 16.4068 110.487 17.9917L110.474 17.9873Z" fill="#955EFF"/>
<path d="M349.895 50.3266C342.726 50.3266 336.914 56.1382 336.914 63.3073C336.914 70.4764 342.726 76.2881 349.895 76.2881H404.018C411.187 76.2881 416.999 70.4764 416.999 63.3073C416.999 56.1382 411.187 50.3266 404.018 50.3266H349.895Z" fill="#955EFF"/>
<path d="M271.072 4.92616C269.257 3.11071 266.944 1.87436 264.426 1.37347C261.907 0.872577 259.297 1.12964 256.925 2.11215C254.554 3.09466 252.526 4.75848 251.1 6.89321C249.673 9.02794 248.912 11.5377 248.912 14.1051V23.4952H248.252C243.127 23.4947 238.113 24.9857 233.821 27.7864C229.529 30.5871 226.145 34.5764 224.082 39.2676C222.019 43.9588 221.365 49.1491 222.202 54.2053C223.038 59.2615 225.328 63.965 228.792 67.742C232.256 71.5189 236.744 74.2061 241.709 75.4755C246.675 76.745 251.902 76.542 256.754 74.8911C261.605 73.2403 265.872 70.2131 269.032 66.1788C272.193 62.1445 274.111 57.2776 274.553 52.1717C274.767 51.2349 274.875 50.2769 274.874 49.316V14.1139C274.877 12.4075 274.543 10.7172 273.89 9.14046C273.238 7.56368 272.28 6.13145 271.072 4.92616ZM248.252 60.8622C246.768 60.9287 245.285 60.6936 243.894 60.1713C242.503 59.649 241.232 58.8502 240.158 57.8232C239.084 56.7962 238.229 55.5622 237.645 54.1957C237.061 52.8293 236.76 51.3586 236.76 49.8726C236.76 48.3866 237.061 46.9159 237.645 45.5495C238.229 44.183 239.084 42.949 240.158 41.922C241.232 40.8949 242.503 40.0962 243.894 39.5739C245.285 39.0515 246.768 38.8165 248.252 38.8829C248.472 38.8829 248.692 38.8829 248.912 38.8829C251.714 39.1237 254.316 40.4278 256.186 42.5276C258.056 44.6274 259.051 47.3634 258.966 50.1737C258.882 52.9841 257.724 55.6554 255.732 57.639C253.739 59.6227 251.063 60.7682 248.252 60.8402V60.8622Z" fill="#955EFF"/>
<path d="M284.847 4.92616C286.662 3.11071 288.975 1.87436 291.493 1.37347C294.011 0.872577 296.621 1.12964 298.993 2.11215C301.365 3.09466 303.393 4.75848 304.819 6.89321C306.245 9.02794 307.007 11.5377 307.006 14.1051V23.4952H307.667C312.791 23.4947 317.806 24.9857 322.098 27.7864C326.39 30.5871 329.774 34.5764 331.837 39.2676C333.9 43.9588 334.553 49.1491 333.717 54.2053C332.881 59.2615 330.591 63.965 327.127 67.742C323.663 71.5189 319.175 74.2061 314.209 75.4755C309.244 76.745 304.017 76.542 299.165 74.8911C294.313 73.2403 290.047 70.2131 286.886 66.1788C283.726 62.1445 281.808 57.2776 281.366 52.1717C281.152 51.2349 281.044 50.2769 281.045 49.316V14.1139C281.042 12.4075 281.376 10.7172 282.029 9.14046C282.681 7.56368 283.639 6.13145 284.847 4.92616ZM307.667 60.8622C309.151 60.9287 310.634 60.6936 312.025 60.1713C313.416 59.649 314.687 58.8502 315.761 57.8232C316.835 56.7962 317.69 55.5622 318.274 54.1957C318.858 52.8293 319.159 51.3586 319.159 49.8726C319.159 48.3866 318.858 46.9159 318.274 45.5495C317.69 44.183 316.835 42.949 315.761 41.922C314.687 40.8949 313.416 40.0962 312.025 39.5739C310.634 39.0515 309.151 38.8165 307.667 38.8829C307.446 38.8829 307.226 38.8829 307.006 38.8829C304.205 39.1237 301.602 40.4278 299.733 42.5276C297.863 44.6274 296.868 47.3634 296.953 50.1737C297.037 52.9841 298.194 55.6554 300.187 57.639C302.179 59.6227 304.856 60.7682 307.667 60.8402V60.8622Z" fill="#955EFF"/>
<path d="M133.495 76.2889C128.274 76.2889 123.169 74.7405 118.827 71.8395C114.486 68.9384 111.102 64.8151 109.103 59.9908C107.105 55.1666 106.582 49.8581 107.601 44.7367C108.62 39.6153 111.134 34.911 114.827 31.2187C118.519 27.5264 123.223 25.0119 128.345 23.9932C133.466 22.9744 138.774 23.4973 143.599 25.4955C148.423 27.4938 152.546 30.8778 155.447 35.2195C158.348 39.5612 159.897 44.6657 159.897 49.8874C159.889 56.887 157.105 63.5976 152.155 68.5471C147.206 73.4966 140.495 76.2808 133.495 76.2889ZM133.495 38.8868C131.32 38.8868 129.193 39.5319 127.384 40.7407C125.575 41.9495 124.165 43.6675 123.332 45.6776C122.499 47.6877 122.282 49.8996 122.706 52.0335C123.13 54.1674 124.178 56.1276 125.717 57.666C127.255 59.2045 129.215 60.2522 131.349 60.6767C133.483 61.1011 135.695 60.8833 137.705 60.0507C139.715 59.2181 141.433 57.8081 142.642 55.999C143.851 54.19 144.496 52.0631 144.496 49.8874C144.494 46.9714 143.334 44.1756 141.271 42.1145C139.208 40.0533 136.411 38.8956 133.495 38.8956V38.8868Z" fill="#955EFF"/>
<path d="M215.626 38.1599L196.815 49.0153L195.592 50.683C193.785 53.1456 192.811 56.1208 192.811 59.1755V63.0037C192.811 70.0881 187.258 76.0901 180.174 76.2749C178.441 76.3207 176.716 76.019 175.102 75.3875C173.487 74.7559 172.016 73.8075 170.774 72.5979C169.532 71.3884 168.545 69.9424 167.871 68.3453C167.197 66.7481 166.85 65.0321 166.85 63.2985V28.4001C166.85 21.2893 172.451 15.2829 179.562 15.1377C181.272 15.1045 182.971 15.4097 184.563 16.0357C186.154 16.6617 187.606 17.5962 188.835 18.7854C190.064 19.9747 191.045 21.3951 191.723 22.9651C192.401 24.5352 192.762 26.2237 192.785 27.9336C192.787 27.9364 192.789 27.9386 192.792 27.9401C192.796 27.9417 192.799 27.9425 192.802 27.9425C192.806 27.9425 192.809 27.9417 192.812 27.9401C192.815 27.9386 192.818 27.9364 192.82 27.9336L205.497 20.6204C207.706 19.3464 210.33 19.0015 212.793 19.6616C215.256 20.3217 217.356 21.9328 218.632 24.1406L219.133 25.0207C220.409 27.2286 220.756 29.8523 220.098 32.3158C219.441 34.7793 217.832 36.8812 215.626 38.1599Z" fill="#955EFF"/>
</svg>
